<svg width="27" height="27" viewBox="0 0 27 27" fill="none" xmlns="http://www.w3.org/2000/svg">
<path opacity="0.9" d="M25.1088 6.40896C26.2713 5.2852 25.1626 3.95792 24 2.83378C24 2.83378 22.2713 1.2852 21.1088 2.40896L13.3722 9.88768L6.40896 2.49294C5.2852 1.33035 3.95792 2.43911 2.83378 3.60169C2.83378 3.60169 1.2852 5.33035 2.40896 6.49294L9.37129 13.8637L2.49294 20.591C1.33035 21.7148 2.43911 23.0421 3.60169 24.1662C3.60169 24.1662 5.33035 25.7148 6.49294 24.591L14.2295 17.1123L21.1927 24.5071C22.3165 25.6696 23.6438 24.5609 24.7679 23.3983C24.7679 23.3983 26.3165 21.6696 25.1927 20.5071L18.1599 13.0616L25.1088 6.40896Z"  />
</svg>
